<svg id="Layer_1" data-name="Layer 1" xmlns="http://www.w3.org/2000/svg" viewBox="0 0 413.58 310.19"><defs><style>.cls-1{fill:#fff;}</style></defs><title>cafeLuna</title><path class="cls-1" d="M106.71,127.67S209.8,33.14,271.85,80.3c19.68,15,16.18,55.46,0,88.55-20.22,41.35-57.11,74.82-57.11,74.82s75.46-93.84,39-138.44C211.64,53.73,106.71,127.67,106.71,127.67Z"/><path class="cls-1" d="M150,114.31s-.47,68.67,0,69.62,1.94,2.2.1,4.4-4,1.57-4.82,0-.63-2.2,0-3.3,1.57-63.33,1.57-66.47-.16-3.14,1.81-4.56S150,114.31,150,114.31Z"/><path class="cls-1" d="M160.91,148.94s-3.76-2.51-3.76,1.51.75,28.86,6.27,36.39,11.79.5,13.3-10,1.76-30.62,1.76-30.62,1.51-.25,1.51-3.26-7,1.51-6.78,4.27,1.76,1.76,1.25,6.27.2,31.93-5.9,31.87-8.16-25.1-8.16-28.36.5-2.26,1.25-4.27A4.06,4.06,0,0,0,160.91,148.94Z"/><path class="cls-1" d="M187.17,138.33c-1.58-.53-3.28,1.05-3.28,6.7s.92,6.43,1.18,18.38.92,20.09.46,22.06-1.77,7,1.9,7,2.63-1.58,2.76-7.48.26-29.81,3-37.42,4.46-8.4,6.3-8.27,4.33,6.17,4.73,20.22-.66,22.72,0,26.26,2.36,3.92,3.68,3.6,1.05-8.72.79-15.42.11-22.51-2.75-32c-2.19-7.25-5.91-10-9.46-6.23a24.78,24.78,0,0,0-6.17,12.08c-.92,4.2-2.49,3.94-2.49,1.71s.79-8.93.39-10S187.17,138.33,187.17,138.33Z"/><path class="cls-1" d="M241.27,185.09c-1.29-1.62-1.62,2.15-3.77-2.69s-2.26-15.61-2.72-20.46-.73-9.69-.95-12.71.32-3.23.75-4.85a7.82,7.82,0,0,0-.54-4s-.11-1-1.62-.75-1.83.75-2.8,2.27-3.55,1.82-5.6,3-4.85,4.63-6.25,9.62-3.66,34.31-1.08,39.69,6.14,2.26,8.94-2,3.88-9.15,4.63-12.06.32-5.92,1.4-4.74.32,7.43,3.34,12.43S242.56,186.71,241.27,185.09Zm-12-16.73c-1.47,12.38-5.08,23.08-7.68,23.19s-2.71-4.4-2.82-11,.56-23.68,2.59-28.88,7-5.06,7.91-3.08S230.77,156,229.3,168.36Z"/><path class="cls-1" d="M163.55,112.14c-1.8-.75-4.71,3-5.61,7.18-.65,3-.77,8.45,1.43,11.24,1.54,2,5.3,2,6.8.5s1-3.1.22-3.29c-1-.23-.9,1.78-2.5,2.18-1,.24-3.09-.15-3.77-2.77a18.91,18.91,0,0,1,.43-9.59c1.29-3.38,3.49-4,3.57-4.65A.78.78,0,0,0,163.55,112.14Z"/><path class="cls-1" d="M176.59,128.12c-.58-2.13-.78-10.41-.78-13.12,0,0,.07-.93-1.35-.78s-3.51,1.61-4.63,4.63-1.35,9.91-1,12.62,2.85,2.78,4,1.35,1.43-3.28,2-3.28.07.86.14,1.64,1.36,2.1,2.14.74S177.24,130.48,176.59,128.12Zm-3.21-9c-.16,1.74-.14,4-.21,7-.08,3.21-1.71,5.92-2.28,4.92s-.54-7.16.21-10.11c.41-1.62,1-3.94,1.86-3.58S173.43,118.68,173.39,119.14Z"/><path class="cls-1" d="M194.55,127.3c-.57,1.24-1.73,2.63-2.87,2.46s-1.84-2.12-2.06-3.69a12.31,12.31,0,0,1,.06-1.89,4.93,4.93,0,0,0,2-.23,6.41,6.41,0,0,0,3.25-4.7c.55-2.52-.92-5.52-2.71-5.73s-3.42,1.59-4.35,3.34a6.39,6.39,0,0,1-1.39,2.05l-3.63.14a27.46,27.46,0,0,1,.36-4.92c.38-2.09,1-3.7,2.92-4.33a2.65,2.65,0,0,1,2.7.42c.68.62,1.58-.47,1.58-.47.09-1.3-2-2.48-4-2.18-1.19.18-4.37.33-5.26,6.12a47.39,47.39,0,0,0-.61,5.36,14.45,14.45,0,0,0-2.7.37c-.77.5-.52,2,.95,1.94l2.32-.05a52.12,52.12,0,0,1,.17,5.92,14.29,14.29,0,0,0-.5,3.66c.11,1.4,1,1.11,1.57,1s.59-2.6.59-3.8.11-3.15,0-4.75-.17-2.45-.17-2.45l4.15,0a16.17,16.17,0,0,0,.66,5.1c.47,1.62,1.52,5.79,4.09,5.9,2.76.12,4.48-3.45,4.64-4.79S195.13,126.06,194.55,127.3Zm-5.21-8.69c.28-1.52,1.34-2.76,2.42-2.72s1.29,2,.8,3.78c-.4,1.48-1.74,2.52-2.82,2.34C189.06,121.89,189.06,120.12,189.34,118.6Z"/><path class="cls-1" d="M311.25,290.81H101.57a30.19,30.19,0,0,1-30.16-30.16V51a30.19,30.19,0,0,1,30.16-30.16H311.25A30.19,30.19,0,0,1,341.41,51V260.65A30.19,30.19,0,0,1,311.25,290.81Zm-209.69-268A28.19,28.19,0,0,0,73.41,51V260.65a28.19,28.19,0,0,0,28.16,28.16H311.25a28.19,28.19,0,0,0,28.16-28.16V51a28.19,28.19,0,0,0-28.16-28.16Z"/></svg>