<svg id="about" xmlns="http://www.w3.org/2000/svg" viewBox="0 0 375.17 238.43"><defs><style>.cls-1{fill:#f6f1ff;}.cls-2{fill:#c2ba3c;}</style></defs><title>cupIcons</title><ellipse class="cls-1" cx="146.38" cy="44.43" rx="123.5" ry="28.5"/><path class="cls-2" d="M269.78,53.83c.22-1.65.45-3.61.64-5.8.36-4.13-.89-6.54-1.86-7.76a7.72,7.72,0,0,1,1.32,4.16c0,15.74-55.29,28.5-123.5,28.5-65.51,0-119.1-11.77-123.23-26.65V53.1C24.3,68.42,79,80.76,146.36,80.76,212.61,80.76,267,68.81,269.78,53.83Z"/><ellipse class="cls-2" cx="146.38" cy="50.43" rx="110.5" ry="21.5"/><path class="cls-1" d="M269,148.72a195.26,195.26,0,0,0,33.74-22c23-18.72,35.16-38.68,35.16-57.7,0-17.27-10-27.73-29-28.05-6-2-12.87-4.37-22-4a129.9,129.9,0,0,0-19.37,2.24S271,41.45,270.43,48a107.91,107.91,0,0,1-1.54,11.31c4.17-1.51,17.68-4.48,30-5.33,1.08-.08,3,0,4,0,4.71,3.65,6.27,8,6.27,16,0,15.24-8.79,30.46-26.13,45.23a151.67,151.67,0,0,1-16.58,12.19l-1.79,19.88a1.68,1.68,0,0,0,1.92,1.81Z"/><path class="cls-1" d="M146.36,81.22C79,81.22,24.3,68.88,23.15,53.55c0,0,1.88,84.49,2.53,88.25,7.63,43.93,60.17,77.58,120.2,77.58,58.39,0,109.79-31.82,119.5-74,1.13-4.9,4.5-91.84,4.5-91.84C268.72,68.88,213.69,81.22,146.36,81.22Z"/><path class="cls-2" d="M125,188.26q-2.08-.67-4.18-1.42a1.25,1.25,0,0,0-.42-.07H53q2.34,2,4.85,4h66.74A1.27,1.27,0,0,0,125,188.26Z"/><path class="cls-2" d="M218.21,186.83q-2.17.72-4.44,1.42a1.28,1.28,0,0,0,.36,2.5H234q2.5-1.94,4.83-4H218.61A1.24,1.24,0,0,0,218.21,186.83Z"/><path class="cls-2" d="M38.87,171.5q1.48,2,3.09,4H91.59a1.28,1.28,0,0,0,.66-2.37L90,171.7a1.26,1.26,0,0,0-.68-.2Z"/><path class="cls-2" d="M252.13,171.5c-.67.35-1.64.89-2.91,1.58a1.28,1.28,0,0,0,.61,2.4h0c1.08-1.31,2.12-2.63,3.11-4Z"/><path class="cls-2" d="M102.69,179.13H45.15q1.87,2,3.88,4h56.54a1.28,1.28,0,0,0,.55-2.43q-1.43-.69-2.86-1.42A1.26,1.26,0,0,0,102.69,179.13Z"/><path class="cls-2" d="M33.92,163.87q1.15,2,2.43,4h44a1.28,1.28,0,0,0,.76-2.3l-1.85-1.42a1.26,1.26,0,0,0-.78-.27Z"/><path class="cls-2" d="M237.17,179.25q-1.5.7-3.12,1.42a1.28,1.28,0,0,0,.52,2.44h8.21c1.34-1.3,2.65-2.63,3.89-4h-9A1.24,1.24,0,0,0,237.17,179.25Z"/><path class="cls-2" d="M28.68,152.58H63.26a1.28,1.28,0,0,0,.93-2.15L62.85,149a1.26,1.26,0,0,0-.93-.41H27.38Q28,150.61,28.68,152.58Z"/><path class="cls-2" d="M183.41,194.4a144.39,144.39,0,0,1-29.42,0H62.82q3,2.07,6.15,4H222.83q3.17-1.92,6.15-4H183.41Z"/><path class="cls-2" d="M92.62,209.66q6.15,2.25,12.64,4h81.27q6.48-1.73,12.63-4Z"/><path class="cls-2" d="M75.41,202q4,2.11,8.18,4h124.6q4.21-1.87,8.19-4Z"/><path class="cls-2" d="M168.59,217.3H123.12a159.2,159.2,0,0,0,45.47,0Z"/><path class="cls-2" d="M30.12,156.23q.86,2,1.85,4H71.13A1.28,1.28,0,0,0,72,158l-1.57-1.43a1.26,1.26,0,0,0-.86-.34Z"/><path class="cls-2" d="M23.59,72.27l.09,4h1.06A1.28,1.28,0,0,0,26,74.73q-.14-.72-.28-1.42a1.28,1.28,0,0,0-1.25-1Z"/><path class="cls-2" d="M23.77,79.9l.1,4h2.59a1.28,1.28,0,0,0,1.24-1.59l-.34-1.42a1.27,1.27,0,0,0-1.24-1Z"/><path class="cls-2" d="M24,87.54l.1,4h4.48a1.28,1.28,0,0,0,1.22-1.65l-.42-1.42a1.27,1.27,0,0,0-1.22-.92Z"/><path class="cls-2" d="M23.41,64.64l.09,4h1.39c-.23-1.41-.42-2.73-.59-4Z"/><path class="cls-2" d="M23.15,53.35h0l0-.26Z"/><path class="cls-2" d="M23.23,57c0,1.12.06,2.46.09,4h.51c-.17-1.51-.3-2.85-.4-4Z"/><path class="cls-2" d="M24.15,95.17q.05,2,.1,4H31a1.28,1.28,0,0,0,1.2-1.71L31.73,96a1.27,1.27,0,0,0-1.21-.86Z"/><path class="cls-2" d="M24.77,118.07q.06,2,.12,4H41.14a1.28,1.28,0,0,0,1.12-1.9l-.76-1.41a1.27,1.27,0,0,0-1.12-.68Z"/><path class="cls-2" d="M25,125.7q.07,2.1.13,4H45.57a1.28,1.28,0,0,0,1.08-2l-.87-1.41a1.27,1.27,0,0,0-1.08-.61Z"/><path class="cls-2" d="M25.63,141c0,.16,0,.3,0,.38.21,1.21.46,2.41.74,3.61H56.5a1.28,1.28,0,0,0,1-2.08l-1.16-1.43a1.26,1.26,0,0,0-1-.48Z"/><path class="cls-2" d="M25.26,133.33c.06,1.51.11,2.85.16,4H50.66a1.28,1.28,0,0,0,1-2l-1-1.43a1.27,1.27,0,0,0-1-.54Z"/><path class="cls-2" d="M24.35,102.8q.05,2,.11,4h9.46A1.28,1.28,0,0,0,35.1,105l-.57-1.41a1.27,1.27,0,0,0-1.18-.8Z"/><path class="cls-2" d="M24.55,110.43q.06,2,.11,4H37.27a1.28,1.28,0,0,0,1.15-1.83l-.66-1.41a1.27,1.27,0,0,0-1.15-.74Z"/><path class="cls-2" d="M177.93,97c7.48,3.29,10.53,10.9,10,22.6-6.81.71-10.39,1-17.46,1.51a17,17,0,0,0-6.14-12.33c-3.67-3.09-10.16-4.49-19-4.58-9.57-.1-20.28,3.11-24.85,12.37-2.66,5.45-3.48,12.66-2.43,21.08s4.36,15.58,8.83,20.45,9.63,6.67,16.53,6.86c5.29.15,9.52-.85,13.38-3.61s7.17-7,9.78-13.3c6.22-.43,9.39-.67,15.87-1.16-3.84,9.36-10.34,18.16-19.44,22.81-7,3.56-13.24,4.39-20.51,4.38-8.16,0-15.3-1.63-23.93-8a50,50,0,0,1-18.61-29.55c-2.53-11.59-1.52-26.2,8.22-34,10.55-8.49,24.45-10.47,37.36-10.94C155.92,91.21,168.19,92.76,177.93,97Z"/><path class="cls-2" d="M302.88,54a17.57,17.57,0,0,1,2,1.79h14.65A55.52,55.52,0,0,0,302.88,54Z"/><path class="cls-2" d="M308.63,63.42h18.21a1.8,1.8,0,0,0,1.28-3.07l-.12-.11a1.76,1.76,0,0,0-1.2-.46H307.52A17,17,0,0,1,308.63,63.42Z"/><path class="cls-2" d="M309.15,70c0,.36,0,.72,0,1.07h20.72a1.8,1.8,0,0,0,1.8-1.7v-.11a1.79,1.79,0,0,0-1.8-1.83H309.08C309.12,68.22,309.15,69.07,309.15,70Z"/><path class="cls-2" d="M308.19,78.66h20.45a1.82,1.82,0,0,0,1.75-1.35v0A1.8,1.8,0,0,0,328.65,75H308.81C308.65,76.23,308.46,77.45,308.19,78.66Z"/><path class="cls-2" d="M305.77,86.28h19.81a1.8,1.8,0,0,0,1.58-.94l0,0a1.81,1.81,0,0,0-1.58-2.67H307.1C306.71,83.86,306.27,85.07,305.77,86.28Z"/><path class="cls-2" d="M301.88,93.9h18.57a1.81,1.81,0,0,0,1.41-.67l0,0a1.81,1.81,0,0,0-1.41-2.94H303.94C303.31,91.48,302.62,92.69,301.88,93.9Z"/><path class="cls-2" d="M296.52,101.52h16.92a1.82,1.82,0,0,0,1.27-.52l0,0a1.8,1.8,0,0,0-1.27-3.09H299.27C298.41,99.1,297.49,100.31,296.52,101.52Z"/><path class="cls-2" d="M289.6,109.15h15.53a1.82,1.82,0,0,0,1.2-.45l0,0a1.8,1.8,0,0,0-1.2-3.15H293.09C292,106.72,290.83,107.93,289.6,109.15Z"/><path class="cls-2" d="M283,115.2c-.63.54-1.26,1.06-1.88,1.57h14.32a1.81,1.81,0,0,0,1-.31l.05,0a1.81,1.81,0,0,0-1-3.29H285.37C284.6,113.81,283.83,114.51,283,115.2Z"/><path class="cls-2" d="M271,124.39h11.26a1.8,1.8,0,0,0,.8-.18l.07,0a1.81,1.81,0,0,0-.8-3.42h-6.25C274.32,122,272.62,123.26,271,124.39Z"/><path class="cls-2" d="M266.49,130.87s2.37-.69,6.13-2.13a.19.19,0,0,0-.07-.37h-5.94C266.6,129,266.56,129.88,266.49,130.87Z"/></svg>